<?xml version="1.0" standalone="no"?>
<!DOCTYPE svg PUBLIC "-//W3C//DTD SVG 20010904//EN"
 "http://www.w3.org/TR/2001/REC-SVG-20010904/DTD/svg10.dtd">
<svg version="1.0" xmlns="http://www.w3.org/2000/svg"
 width="1280.000000pt" height="908.000000pt" viewBox="0 0 1280.000000 908.000000"
 preserveAspectRatio="xMidYMid meet">
<metadata>
Created by potrace 1.16, written by Peter Selinger 2001-2019
</metadata>
<g transform="translate(0.000000,908.000000) scale(0.100000,-0.100000)"
fill="#000000" stroke="none">
<path d="M0 4540 l0 -4540 6400 0 6400 0 0 4540 0 4540 -6400 0 -6400 0 0
-4540z m7050 4206 c313 -40 657 -145 967 -296 394 -191 730 -446 1023 -779
157 -178 390 -517 390 -568 0 -16 -19 -35 -64 -68 -79 -56 -99 -54 -141 16
-39 67 -168 261 -200 303 -14 18 -25 39 -25 47 0 37 -353 414 -378 404 -7 -3
-31 11 -52 31 -54 50 -200 159 -317 236 -261 172 -558 307 -843 382 -52 14
-111 30 -130 35 -31 9 -147 28 -357 60 -102 16 -546 13 -668 -4 -180 -24 -310
-46 -335 -55 -14 -5 -54 -16 -90 -25 -79 -18 -225 -65 -340 -110 -453 -178
-893 -493 -1200 -858 -35 -42 -70 -77 -76 -77 -28 0 -228 -301 -326 -490 -141
-271 -267 -646 -274 -815 -2 -44 -11 -123 -20 -175 -12 -67 -18 -173 -21 -364
-4 -250 -2 -281 22 -450 63 -432 190 -792 405 -1150 268 -445 626 -796 1094
-1074 l56 -33 0 -115 c0 -63 -3 -114 -7 -114 -14 0 -138 67 -234 125 -451 275
-862 694 -1122 1147 -80 138 -171 329 -226 473 -93 245 -157 511 -186 775 -21
185 -16 657 8 825 136 951 675 1781 1492 2297 180 114 350 198 565 282 86 33
316 105 361 112 l35 6 19 -57 c17 -48 23 -55 40 -50 11 3 61 12 110 21 50 9
92 18 95 20 2 3 -4 28 -14 55 -9 28 -15 54 -11 57 3 4 61 14 128 23 168 23
654 20 847 -5z m-40 -350 c41 -8 113 -22 159 -31 46 -9 119 -26 162 -37 l78
-21 3 -119 c2 -65 -1 -123 -5 -127 -4 -4 -38 0 -75 11 -378 107 -753 126
-1203 63 l-37 -5 -27 77 c-15 43 -31 88 -36 101 -20 50 -13 59 49 67 31 3 75
11 97 16 134 32 689 35 835 5z m-1482 -317 l40 -110 -117 -58 c-145 -72 -194
-99 -301 -170 -290 -190 -547 -443 -742 -731 -200 -296 -347 -658 -412 -1015
-38 -207 -45 -603 -16 -820 47 -341 181 -721 358 -1008 l35 -58 -84 -85 c-46
-46 -88 -84 -94 -84 -22 1 -171 269 -251 453 -248 563 -302 1237 -149 1847 47
185 124 395 209 569 49 100 153 279 189 326 4 6 36 51 71 100 180 255 458 519
751 713 133 88 422 242 454 242 14 0 27 -25 59 -111z m1388 56 c128 -17 212
-31 274 -47 81 -20 244 -68 298 -88 28 -11 77 -29 107 -41 55 -21 64 -34 49
-73 -9 -23 -33 -20 -111 13 -142 61 -377 121 -611 157 -131 21 -474 23 -612 5
-219 -29 -418 -78 -605 -148 -140 -53 -357 -158 -430 -209 -28 -20 -47 -17
-67 10 -16 22 -16 24 0 38 86 75 454 241 659 298 151 42 179 48 313 69 74 11
146 22 160 24 70 11 475 6 576 -8z m9 -190 c157 -24 262 -45 326 -65 34 -11
66 -20 71 -20 16 0 244 -88 284 -109 21 -12 42 -21 47 -21 15 0 241 -132 322
-188 280 -193 523 -447 697 -730 76 -123 207 -389 196 -397 -9 -6 -99 -27
-102 -24 -2 2 -23 47 -47 99 -23 52 -51 111 -62 130 -12 19 -28 49 -37 65 -56
104 -232 347 -287 397 -17 16 -20 14 -66 -37 l-48 -55 79 -97 c105 -131 162
-219 250 -392 85 -166 89 -150 -44 -185 -60 -16 -87 -20 -93 -12 -4 6 -26 49
-49 96 -50 104 -111 206 -170 285 -25 33 -47 62 -48 63 -1 2 -16 -6 -32 -18
l-30 -23 -34 39 c-73 86 -157 170 -240 240 -80 69 -107 85 -108 67 -1 -5 -24
-34 -53 -66 l-53 -59 -68 46 c-136 91 -351 184 -511 219 -221 50 -247 53 -456
50 -327 -4 -650 -108 -930 -299 -41 -29 -101 -74 -134 -102 l-58 -50 -32 21
c-18 12 -51 35 -74 51 l-42 29 -35 -34 c-45 -43 -160 -180 -200 -239 -55 -80
-114 -180 -114 -194 0 -8 29 -33 65 -55 36 -23 65 -48 65 -56 0 -8 -15 -45
-33 -83 -71 -144 -130 -375 -148 -572 -35 -394 103 -850 354 -1169 36 -45 48
-67 41 -76 -5 -8 -27 -39 -48 -70 l-40 -56 70 -70 c76 -77 196 -179 210 -179
5 0 24 26 43 56 18 30 39 58 46 61 8 2 38 -13 67 -35 74 -55 245 -144 358
-187 99 -38 266 -81 347 -91 96 -11 90 -5 95 -88 2 -41 6 -78 10 -82 4 -4 49
-9 100 -12 80 -4 172 2 376 25 l42 5 0 -41 c0 -51 8 -51 141 -17 225 59 443
162 647 306 47 33 64 36 84 17 7 -7 39 -34 71 -61 31 -27 57 -52 57 -57 0 -4
-42 -37 -92 -72 -253 -176 -479 -280 -765 -351 -82 -20 -243 -46 -290 -46 -77
0 -79 -3 -75 -83 2 -40 6 -73 7 -75 9 -10 326 41 429 69 55 15 72 16 78 6 13
-20 9 -84 -6 -96 -15 -13 -149 -42 -301 -67 -107 -17 -431 -30 -498 -20 -37 6
-47 11 -47 27 0 16 -7 19 -47 19 -27 0 -77 5 -112 10 -52 7 -67 6 -75 -5 -16
-21 -149 8 -373 81 -108 35 -376 161 -450 212 -15 10 -59 39 -98 64 -110 72
-240 180 -358 296 -126 124 -154 159 -139 174 14 14 -115 183 -141 183 -18 0
-33 18 -98 116 -9 14 -40 72 -68 130 -29 57 -58 115 -66 129 -66 126 -143 387
-181 615 -24 139 -27 188 -27 375 1 118 5 244 11 280 6 36 18 110 27 165 15
99 41 202 55 218 4 5 28 -1 52 -12 l45 -20 -27 -113 c-30 -124 -47 -258 -33
-258 5 0 14 33 21 73 29 181 70 343 127 497 27 75 133 290 143 290 5 0 28 -13
50 -30 23 -16 45 -30 49 -30 5 0 34 43 66 95 58 95 177 251 255 335 23 24 42
47 42 50 0 4 -20 21 -45 39 -25 18 -45 36 -45 40 0 14 164 160 260 231 64 48
75 58 68 65 -9 9 -132 -84 -249 -189 -236 -212 -437 -488 -569 -786 -19 -41
-35 -77 -36 -79 -7 -9 -94 36 -94 48 0 44 135 298 251 472 205 308 568 627
899 789 47 22 97 48 111 55 31 17 264 105 277 105 5 0 38 9 73 20 74 24 388
80 448 80 30 0 41 -4 41 -15 0 -12 19 -15 111 -15 71 0 108 4 104 10 -3 6 -4
14 -1 19 7 11 152 3 271 -14z m1014 -157 c31 -17 58 -35 61 -38 3 -4 16 -13
30 -20 51 -26 248 -179 330 -256 151 -140 340 -352 340 -380 0 -10 -41 -44
-53 -44 -2 0 -43 46 -90 103 -101 121 -261 279 -372 367 -65 52 -248 176 -331
226 -16 9 -16 14 -5 42 8 18 18 32 23 32 6 0 36 -14 67 -32z m-2915 -213 c9
-13 16 -26 16 -29 0 -2 -24 -23 -52 -46 -79 -62 -262 -244 -342 -340 -228
-273 -391 -580 -492 -926 -39 -135 -82 -367 -88 -479 -3 -55 -8 -127 -11 -160
-8 -87 21 -410 49 -550 13 -66 38 -167 56 -225 45 -149 46 -156 20 -163 -38
-10 -58 13 -83 98 -48 157 -69 247 -94 400 -26 157 -26 602 0 760 100 618 382
1143 838 1560 92 85 142 125 155 125 7 0 19 -11 28 -25z m1171 -495 c4 -6 21
-8 41 -4 26 5 35 3 40 -11 4 -11 14 -15 26 -11 28 7 48 -3 58 -30 6 -16 15
-22 25 -18 20 8 45 -13 38 -32 -4 -12 13 -14 101 -14 83 0 108 -3 112 -14 3
-8 16 -17 29 -20 18 -5 26 -15 31 -41 l6 -35 77 0 c75 1 111 13 111 39 0 8
102 11 380 11 365 0 382 -1 425 -21 24 -11 61 -39 81 -62 42 -46 108 -181 126
-256 l11 -51 195 -146 c381 -288 583 -468 648 -579 26 -44 29 -60 29 -132 0
-74 -3 -85 -30 -125 -34 -47 -89 -83 -144 -93 -38 -7 -523 -334 -514 -347 2
-5 45 -8 94 -8 98 0 114 -10 85 -52 -14 -20 -16 -78 -16 -475 l0 -453 29 0
c39 0 68 -27 49 -46 -11 -11 -107 -14 -506 -14 -271 0 -497 2 -502 5 -6 4 -10
14 -10 24 0 19 26 31 68 31 l22 0 0 461 c0 456 0 461 -21 466 -14 4 -19 12
-17 27 2 17 11 22 47 24 39 3 42 5 37 25 -18 62 -27 134 -21 170 16 93 72 181
145 228 l50 32 0 89 0 88 33 0 c18 0 37 4 43 10 15 15 126 70 141 70 7 0 13
-4 13 -9 0 -5 10 -11 23 -15 13 -3 40 -17 61 -31 20 -14 48 -25 61 -25 21 0
25 -5 25 -31 0 -30 2 -31 31 -25 62 12 200 59 197 67 -2 4 -109 121 -238 259
-129 138 -260 279 -291 313 -52 56 -60 61 -93 59 -82 -6 -177 48 -206 117 -8
20 -21 31 -42 35 -49 10 -53 8 -72 -34 -10 -23 -31 -51 -47 -63 l-30 -22 3
-173 3 -174 -33 -29 c-48 -43 -88 -35 -118 23 -14 28 -16 53 -10 173 4 77 4
143 1 146 -3 3 -25 3 -50 -1 -39 -6 -57 -18 -128 -87 -114 -111 -157 -137
-221 -137 -65 0 -104 21 -182 95 -57 55 -62 58 -86 47 -31 -15 -38 -49 -37
-171 1 -81 -7 -102 -56 -157 -20 -23 -34 -65 -49 -157 -3 -21 0 -35 10 -43 8
-7 21 -38 30 -69 30 -107 57 -171 71 -171 8 0 25 -11 39 -26 30 -29 29 -30
-18 -166 -29 -83 -32 -88 -67 -98 -66 -18 -74 -10 -46 44 15 28 21 139 9 171
-17 42 -174 61 -253 29 l-38 -15 -6 -82 c-3 -61 -1 -86 9 -98 8 -8 14 -26 14
-38 0 -21 -3 -23 -37 -16 -21 3 -42 10 -46 14 -13 13 -77 192 -77 216 0 22 32
57 61 68 10 3 29 44 49 109 18 57 39 110 47 120 10 11 13 29 8 60 -5 35 -2 52
20 92 23 43 25 53 16 100 -5 28 -11 56 -12 61 -2 6 0 34 4 63 11 77 1 122 -28
122 -31 0 -36 19 -34 117 1 68 -2 87 -16 103 -10 11 -15 20 -10 20 4 0 2 6 -5
14 -6 8 -17 13 -24 10 -13 -5 -38 18 -35 32 4 23 -3 34 -20 34 -22 0 -32 20
-24 49 3 12 1 21 -5 21 -21 0 -35 40 -21 57 11 12 10 17 -4 28 -22 16 -22 41
0 53 11 7 14 15 8 28 -11 25 -7 46 12 59 8 6 14 18 13 26 -5 30 1 40 26 49 16
7 24 16 21 24 -6 16 18 41 40 41 7 0 19 11 26 25 10 19 20 24 40 22 17 -2 29
3 33 12 8 21 34 28 52 14 12 -11 17 -10 26 5 12 19 51 23 61 7z m54 -1960 c7
-11 20 -20 27 -20 19 0 18 -13 -7 -71 -13 -29 -18 -53 -13 -58 5 -4 37 -18 71
-30 60 -22 90 -45 112 -88 9 -17 8 -22 -5 -27 -17 -6 -16 -60 2 -195 5 -36 3
-47 -12 -58 -27 -20 -34 -16 -34 17 0 17 -4 30 -10 30 -5 0 -10 -13 -10 -30 0
-31 -6 -36 -29 -21 -11 7 -12 32 -7 124 4 75 3 118 -4 122 -6 4 -10 -15 -10
-53 0 -44 -5 -66 -20 -85 l-20 -25 22 -48 c11 -27 27 -53 35 -59 9 -7 14 -35
14 -88 1 -62 5 -85 22 -112 19 -30 27 -34 65 -35 74 0 82 -10 82 -93 0 -44 -5
-78 -12 -85 -8 -8 -48 -12 -114 -12 l-102 0 11 -30 c14 -37 23 -38 31 -5 11
42 26 28 25 -22 0 -33 -3 -42 -8 -28 -8 19 -8 19 -19 0 -12 -20 -12 -20 -27
-1 -14 18 -15 18 -15 2 0 -10 -5 -14 -11 -10 -7 4 -9 22 -4 50 l6 44 -78 -1
c-48 0 -70 -3 -58 -8 15 -6 20 -18 21 -49 l0 -42 -23 22 -23 21 -9 -24 c-9
-22 -10 -22 -12 -4 -1 11 -1 35 -1 53 1 30 -1 32 -31 31 -31 0 -31 -1 -9 -11
19 -9 22 -18 20 -47 -3 -33 -6 -36 -36 -39 -26 -3 -34 1 -41 20 -10 27 -4 48
17 66 13 10 11 12 -19 12 -22 0 -29 -3 -21 -9 10 -6 7 -10 -12 -15 -32 -8 -34
-26 -3 -27 l22 -2 -22 -4 c-15 -3 -23 -12 -23 -24 0 -10 -4 -19 -10 -19 -5 0
-10 20 -10 45 0 39 3 45 23 47 12 1 -18 4 -68 7 l-90 6 -3 78 c-3 96 4 107 68
107 44 0 50 3 69 36 17 28 21 52 21 114 0 65 3 81 18 89 9 5 25 30 35 57 16
44 16 48 0 66 -10 11 -19 44 -23 86 l-6 67 -8 -42 c-4 -23 -5 -47 -1 -52 8
-15 10 -145 1 -159 -15 -24 -36 -12 -38 21 l-1 32 -4 -32 c-5 -35 -9 -38 -32
-24 -12 8 -14 34 -13 127 1 77 -2 122 -9 131 -27 32 32 91 123 122 57 19 70
40 45 69 -8 9 -18 32 -22 50 -5 25 -3 32 9 32 8 0 20 9 26 19 12 23 33 27 125
24 57 -2 73 -6 84 -23z m-1919 -732 c405 -783 1167 -1303 2026 -1382 77 -7
146 -16 152 -20 15 -9 16 -48 2 -62 -10 -10 -235 6 -340 24 -306 54 -553 138
-795 269 -254 137 -438 275 -640 477 -135 135 -207 224 -317 386 -101 150
-205 348 -186 354 7 3 20 7 28 9 32 11 39 5 70 -55z m3952 -815 c10 -9 18 -21
18 -27 0 -15 -225 -181 -345 -253 -263 -160 -596 -288 -849 -328 -12 -2 -61
-10 -111 -18 -49 -9 -125 -18 -167 -21 -77 -6 -78 -5 -84 19 -11 43 8 51 139
64 323 32 709 158 982 321 28 16 62 36 76 44 36 21 172 117 242 171 65 50 73
52 99 28z m-3214 -190 c122 -88 216 -144 367 -218 248 -122 493 -199 769 -241
148 -23 202 -27 396 -26 124 0 257 5 295 11 39 7 113 18 165 26 112 17 259 54
385 97 147 50 140 52 185 -47 58 -125 58 -128 13 -144 -21 -7 -51 -19 -68 -26
-83 -36 -267 -85 -445 -119 -323 -62 -736 -62 -1060 0 -400 76 -745 217 -1080
440 -135 90 -144 98 -134 116 12 20 138 178 142 178 2 0 33 -21 70 -47z
m-2738 -1190 c0 -5 -11 -37 -24 -73 l-24 -65 -211 -3 c-165 -2 -211 0 -211 10
0 12 36 114 46 130 7 10 424 10 424 1z m175 -85 c-18 -51 -38 -106 -44 -121
-15 -39 -16 -39 31 -35 l42 3 45 123 44 122 79 0 c71 0 79 -2 74 -17 -3 -10
-59 -160 -124 -333 l-119 -315 -76 -3 c-46 -2 -77 1 -77 7 0 6 20 64 45 131
25 67 45 125 45 130 0 6 -17 10 -39 10 -38 0 -39 -1 -61 -62 -13 -35 -36 -98
-52 -140 l-30 -78 -80 0 c-72 0 -79 2 -73 18 5 14 209 556 236 630 8 20 15 22
88 22 l80 0 -34 -92z m655 20 l-27 -73 -147 -3 c-113 -2 -146 0 -146 10 0 12
36 114 46 130 3 5 72 8 154 8 l148 0 -28 -72z m738 56 c33 -23 28 -70 -24
-208 -52 -140 -67 -166 -94 -166 -21 0 -27 -15 -10 -25 18 -11 10 -57 -27
-157 l-36 -98 -74 0 c-52 0 -73 4 -73 13 0 6 18 62 41 124 23 61 39 119 35
128 -4 11 -15 15 -37 13 -30 -3 -33 -7 -78 -128 -26 -69 -50 -131 -55 -138 -8
-14 -156 -17 -156 -3 0 4 25 75 56 157 31 82 65 173 76 202 l19 52 124 0 123
0 11 31 c15 44 14 66 -5 73 -9 3 -60 6 -114 6 l-98 0 26 70 27 70 160 0 c129
0 165 -3 183 -16z m512 -4 c11 -11 20 -33 20 -49 0 -27 -160 -463 -193 -528
-33 -62 -46 -67 -195 -71 -232 -5 -232 -7 -97 357 92 247 113 289 155 304 8 3
77 6 153 6 124 1 139 -1 157 -19z m509 -6 c12 -15 21 -34 21 -42 0 -25 -81
-235 -98 -254 -8 -10 -23 -18 -33 -18 -15 0 -16 -4 -7 -28 14 -35 6 -76 -35
-176 -48 -119 -50 -120 -269 -124 -147 -3 -180 -1 -176 10 3 7 38 102 79 210
l74 197 124 3 124 3 14 39 c20 60 9 66 -113 66 -57 0 -104 2 -104 4 0 4 22 66
39 109 l11 27 164 0 165 0 20 -26z m500 0 c12 -15 21 -35 21 -45 0 -28 -196
-538 -215 -559 -27 -30 -79 -40 -208 -40 -113 0 -119 1 -144 26 -33 33 -32 37
68 304 104 279 107 287 142 316 27 23 35 24 172 24 143 0 144 0 164 -26z
m1380 14 c0 -7 -10 -40 -23 -73 l-23 -60 -211 -3 c-117 -1 -212 1 -212 6 0 11
37 119 45 132 10 16 425 13 424 -2z m350 5 c0 -5 -13 -37 -27 -73 l-27 -65
-148 -3 c-81 -1 -147 1 -147 5 0 4 12 38 26 75 l26 68 149 0 c82 0 149 -3 148
-7z m421 -11 c25 -20 30 -75 11 -111 -11 -19 -20 -21 -116 -21 -104 0 -105 0
-118 -27 -34 -68 -119 -314 -113 -328 4 -12 25 -15 106 -15 111 0 111 0 81
-65 -34 -74 -46 -80 -197 -83 -109 -3 -139 -1 -158 11 -47 31 -43 51 63 334
55 146 108 275 118 286 29 31 51 36 179 36 103 1 125 -2 144 -17z m300 9 c0
-4 -18 -56 -40 -115 -22 -58 -40 -111 -40 -116 0 -6 18 -10 39 -10 l39 0 42
118 c24 64 46 121 50 125 4 4 41 7 83 5 l76 -3 -123 -328 c-68 -181 -126 -331
-129 -333 -2 -3 -38 -4 -80 -2 l-75 3 49 130 c27 72 49 133 49 138 0 4 -18 7
-39 7 l-39 0 -40 -102 c-21 -57 -45 -120 -53 -140 l-13 -38 -79 0 c-59 0 -78
3 -75 13 3 6 58 157 124 334 l119 323 78 0 c42 0 77 -4 77 -9z m920 4 c0 -11
-44 -121 -53 -132 -11 -15 -282 -19 -291 -4 -3 4 6 38 20 75 l26 66 149 0 c82
0 149 -2 149 -5z m439 -21 c12 -15 21 -35 21 -45 0 -28 -197 -539 -216 -560
-26 -29 -78 -39 -207 -39 -112 0 -119 1 -142 25 -14 13 -25 33 -25 43 0 32
195 540 216 563 30 34 51 38 196 38 136 1 137 1 157 -25z m499 10 c34 -23 28
-73 -24 -209 -52 -139 -67 -165 -94 -165 -21 0 -27 -15 -10 -25 18 -11 10 -57
-26 -157 l-36 -98 -74 0 c-53 0 -74 4 -74 13 0 6 18 62 41 124 23 61 39 119
36 127 -4 10 -18 16 -36 16 -29 0 -31 -4 -83 -137 l-54 -138 -77 -3 c-42 -2
-77 1 -77 6 0 5 25 76 56 158 31 82 65 173 76 202 l19 52 123 0 c122 0 123 0
134 25 17 36 15 72 -4 79 -9 3 -60 6 -114 6 l-98 0 26 70 27 70 160 0 c129 0
165 -3 183 -16z m317 -1 c-67 -168 -175 -478 -171 -489 8 -21 53 -17 69 6 8
12 54 129 103 260 l89 240 77 0 c43 0 78 -3 78 -7 0 -5 -49 -138 -109 -298
-75 -199 -118 -301 -139 -325 l-29 -35 -152 0 c-139 0 -154 2 -167 19 -8 11
-14 33 -14 50 0 23 111 337 205 579 6 14 20 17 87 17 72 0 79 -2 73 -17z m940
-8 c14 -13 25 -32 25 -42 0 -10 -49 -148 -109 -308 l-109 -290 -76 -3 c-55 -2
-76 1 -76 9 0 7 39 116 86 242 47 126 84 236 82 245 -3 15 -28 17 -231 20
-125 1 -227 6 -227 11 0 8 17 57 39 114 l11 27 280 0 281 0 24 -25z m-8875
-234 c0 -4 -25 -75 -56 -157 -31 -82 -65 -173 -76 -201 l-19 -53 -81 0 c-44 0
-78 4 -76 8 2 5 37 100 78 210 l75 202 77 0 c43 0 78 -4 78 -9z m979 2 c0 -5
-10 -35 -22 -68 l-22 -60 -74 -5 -73 -5 -19 -50 c-28 -74 -28 -75 46 -75 36 0
65 -2 65 -4 0 -3 -12 -37 -26 -75 l-26 -71 -150 0 c-116 0 -149 3 -146 13 3 6
38 101 78 210 l73 197 148 0 c82 0 149 -3 148 -7z m2889 -1 c-1 -4 -14 -38
-27 -75 l-25 -67 -93 -1 c-51 -1 -102 -1 -113 -1 -11 0 -24 0 -30 1 -5 1 0 25
11 54 12 28 25 62 30 75 8 21 13 22 130 22 66 0 119 -4 117 -8z m598 -14 c-3
-13 -36 -106 -75 -208 l-69 -185 -82 -3 c-46 -2 -80 1 -78 6 1 5 37 100 78
211 l75 201 79 0 c76 0 78 -1 72 -22z m459 -43 c-14 -36 -25 -68 -25 -70 0 -3
-33 -5 -73 -5 l-72 0 -23 -58 c-12 -32 -22 -61 -22 -65 0 -4 29 -7 65 -7 75 0
74 1 41 -85 l-23 -60 -151 -3 -152 -3 29 78 c84 226 122 327 127 335 3 4 72 8
154 8 l149 0 -24 -65z m1640 -1 c-14 -37 -25 -68 -25 -70 0 -2 -33 -4 -72 -6
l-73 -3 -51 -135 -51 -135 -77 -3 c-55 -2 -76 1 -76 9 0 10 74 213 139 382
l11 27 150 0 150 0 -25 -66z m1785 59 c0 -4 -34 -98 -76 -210 l-77 -203 -79 0
c-44 0 -78 4 -76 8 2 5 36 99 77 210 l74 202 79 0 c43 0 78 -3 78 -7z m240 -2
c0 -4 -25 -75 -56 -157 -31 -82 -65 -173 -76 -201 l-19 -53 -75 0 c-53 0 -74
4 -74 13 0 10 92 261 139 380 10 26 13 27 86 27 41 0 75 -4 75 -9z m-4879
-692 c30 -15 39 -50 27 -98 l-10 -41 -118 0 c-83 0 -121 -4 -128 -13 -18 -21
-129 -331 -124 -345 3 -8 17 -12 36 -10 27 3 35 11 58 58 l27 55 -23 5 -24 5
27 70 27 70 97 3 c56 2 97 -1 97 -7 0 -11 -117 -327 -131 -354 -6 -10 -25 -27
-42 -37 -28 -17 -51 -20 -166 -20 -125 0 -136 2 -158 22 -13 12 -23 32 -23 44
0 23 167 479 194 533 17 32 45 57 71 64 40 10 267 7 286 -4z m494 -14 c28 -27
29 -34 14 -87 l-10 -38 -104 0 c-97 0 -106 -2 -119 -22 -26 -40 -125 -318
-120 -333 5 -12 27 -15 105 -15 113 0 115 -2 78 -78 -31 -62 -60 -72 -214 -72
-112 0 -127 2 -145 20 -11 11 -20 33 -20 50 0 28 163 477 196 542 24 46 63 57
197 58 112 0 119 -1 142 -25z m490 0 c14 -13 25 -34 25 -46 0 -12 -43 -137
-96 -278 -71 -188 -104 -264 -125 -286 l-29 -30 -143 -3 c-130 -3 -145 -2
-167 16 -18 14 -24 29 -23 53 2 36 173 507 199 547 27 41 69 51 207 52 123 0
129 -1 152 -25z m455 12 c0 -7 -10 -40 -23 -72 l-23 -60 -152 -3 -151 -3 25
68 c14 37 28 71 30 75 3 4 70 8 150 8 111 0 144 -3 144 -13z m441 -8 c17 -17
20 -30 17 -63 -4 -33 -118 -523 -134 -573 -2 -10 -64 -13 -264 -13 -143 0
-260 2 -260 5 0 3 62 96 139 208 l138 202 82 3 c44 2 81 1 81 -2 0 -3 -31 -54
-69 -115 -105 -166 -102 -151 -32 -151 56 0 59 1 63 28 3 15 21 89 42 166 20
76 36 147 36 157 0 17 -9 19 -95 19 -69 0 -95 3 -95 13 0 11 36 113 46 129 3
5 68 8 145 8 128 0 141 -2 160 -21z m-531 -238 c0 -5 -11 -37 -24 -72 l-24
-64 -72 -3 c-70 -3 -72 -3 -85 -36 -8 -17 -17 -44 -20 -59 l-7 -27 66 0 c36 0
66 -2 66 -4 0 -3 -12 -37 -26 -75 l-26 -71 -150 0 c-116 0 -149 3 -146 13 3 6
38 101 78 210 l73 197 149 0 c81 0 148 -4 148 -9z"/>
<path d="M6113 7001 c-39 -10 -112 -52 -134 -77 -42 -48 -69 -119 -69 -179 0
-66 31 -145 69 -179 l21 -19 0 35 c0 20 -9 55 -20 79 -35 77 -20 161 38 222
47 50 93 67 204 75 l103 8 -39 17 c-47 21 -129 29 -173 18z"/>
<path d="M6124 6860 c-40 -16 -74 -68 -74 -114 0 -121 140 -175 223 -88 94 98
-21 254 -149 202z"/>
<path d="M7582 6660 c-95 -22 -121 -134 -46 -199 38 -34 83 -40 129 -19 19 8
24 17 20 32 -3 12 -2 15 1 9 9 -20 20 -15 32 12 30 64 2 134 -64 161 -19 8
-35 14 -36 13 -2 -1 -18 -5 -36 -9z"/>
<path d="M6697 6633 c-2 -5 -7 -20 -11 -35 -3 -15 -15 -30 -26 -33 -11 -3 -20
-13 -20 -21 0 -8 -10 -14 -23 -14 -13 0 -28 -5 -35 -12 -8 -8 -15 -8 -27 2
-13 11 -18 10 -29 -5 -13 -18 -14 -18 -24 0 -9 17 -12 17 -27 5 -14 -12 -18
-12 -25 0 -7 11 -11 11 -24 1 -13 -11 -19 -11 -31 -1 -13 11 -18 10 -30 -6
-13 -18 -14 -18 -20 -1 -4 9 -13 17 -21 17 -11 0 -14 -24 -14 -120 0 -138 5
-144 68 -81 l38 39 150 7 c115 6 160 12 199 28 39 16 71 21 141 20 l91 -1 11
32 c7 18 12 53 12 79 l0 47 -65 0 c-49 0 -65 3 -65 14 0 28 -47 46 -119 46
-38 0 -72 -3 -74 -7z"/>
<path d="M7053 6523 c3 -32 8 -73 12 -91 l7 -33 72 3 71 3 3 67 c4 91 -12 108
-104 108 l-66 0 5 -57z"/>
<path d="M6805 6380 c-22 -4 -78 -18 -125 -33 -47 -14 -121 -29 -165 -33 l-80
-6 70 -66 c74 -69 131 -101 179 -102 51 0 107 36 211 134 82 78 97 97 85 105
-17 12 -113 12 -175 1z"/>
<path d="M7190 6365 c-14 -8 -37 -14 -51 -15 -25 0 -26 -2 -32 -82 -18 -224
-3 -282 68 -264 42 11 55 53 54 168 -1 57 -4 126 -7 155 -7 51 -7 52 -32 38z"/>
<path d="M6109 5872 c-28 -23 -30 -73 -4 -102 41 -45 125 -12 125 50 0 61 -71
91 -121 52z"/>
<path d="M8535 5811 c-81 -20 -117 -69 -122 -166 -4 -67 -3 -72 28 -109 99
-118 277 -74 313 77 14 60 -32 150 -93 182 -36 18 -90 25 -126 16z m100 -116
c27 -26 32 -70 12 -96 -50 -65 -147 -36 -147 45 0 69 85 101 135 51z"/>
<path d="M6153 5116 c2 -6 14 -13 28 -16 17 -4 25 -14 27 -33 3 -27 3 -27 -62
-27 -65 0 -66 0 -67 28 0 24 -1 25 -10 7 -7 -16 -9 -14 -6 12 2 18 0 30 -5 27
-4 -3 -8 -34 -8 -70 l0 -64 95 0 95 0 0 64 c0 38 -5 68 -11 72 -19 12 -80 12
-76 0z"/>
<path d="M6170 4942 c0 -41 -142 -155 -171 -137 -5 4 -9 -14 -9 -38 0 -32 5
-47 16 -51 9 -3 71 -6 139 -6 68 0 130 3 139 6 13 5 16 25 16 114 l0 108 -44
11 c-64 16 -86 14 -86 -7z"/>
<path d="M6081 4593 c-20 -24 -20 -28 -6 -49 10 -16 15 -48 15 -98 0 -126 53
-179 99 -100 16 27 21 52 21 113 0 43 5 82 11 88 8 8 6 19 -7 42 -16 28 -23
31 -65 31 -40 0 -51 -5 -68 -27z"/>
<path d="M5800 4215 l0 -75 348 2 347 3 0 70 0 70 -347 3 -348 2 0 -75z"/>
<path d="M4157 2023 c-34 -68 -119 -314 -113 -328 7 -19 50 -20 65 -2 19 24
130 328 124 343 -3 8 -18 14 -34 14 -21 0 -32 -7 -42 -27z"/>
<path d="M5173 2038 c-18 -23 -125 -318 -121 -335 5 -28 54 -29 68 -2 23 41
120 309 120 329 0 15 -7 20 -29 20 -16 0 -33 -6 -38 -12z"/>
<path d="M8982 2037 c-18 -21 -124 -317 -120 -335 2 -10 14 -18 30 -20 30 -4
42 14 79 115 11 32 34 93 50 135 38 100 38 118 0 118 -16 0 -33 -6 -39 -13z"/>
<path d="M6568 1096 c-21 -20 -131 -324 -124 -341 7 -19 50 -20 65 -1 6 7 38
85 71 172 60 162 62 184 19 184 -9 0 -24 -6 -31 -14z"/>
</g>
</svg>
